<svg width="160" height="43" viewBox="0 0 160 43" fill="none" xmlns="http://www.w3.org/2000/svg"><path d="M58.384 18.316c-.522 0-.943-.156-1.264-.47-.3-.312-.451-.713-.451-1.202 0-.49.161-.881.481-1.174q.149-.145.322-.244.391-.226.912-.226c.46 0 .862.156 1.203.47q.284.246.419.557.122.282.122.617c0 .489-.171.89-.512 1.203-.34.313-.75.47-1.232.47zM45.616 36.25c-1.584 0-2.886-.342-3.909-1.026a6.402 6.402 0 0 1-2.286-2.819q-.751-1.79-.751-4.02 0-2.23.75-4.022c.503-1.213 1.274-2.172 2.317-2.876 1.042-.704 2.375-1.056 4-1.056.621 0 1.242.078 1.865.235a6.416 6.416 0 0 1 1.803.675 4.44 4.44 0 0 1 1.445 1.203v-7.22h2.555v20.75H50.97l-.12-2.318a4.584 4.584 0 0 1-1.384 1.438 6.216 6.216 0 0 1-1.805.792 7.927 7.927 0 0 1-2.045.264zm-38.038-.176c-1.202 0-2.175-.175-2.917-.528q-.497-.243-.874-.61-.443-.431-.72-1.034c-.32-.743-.481-1.682-.481-2.817v-8.276H0v-2.203h2.586v-4.607h2.557v4.607h4.24v2.203h-4.24v8.011q0 1.585.57 2.349.602.733 2.407.733h1.173v2.172H7.578zm4.395 0V20.605h2.465l.12 2.408q.602-.91 1.384-1.468.31-.213.643-.384.537-.274 1.132-.437.992-.294 2.135-.294h.812v2.347h-.933c-1.243 0-2.255.265-3.037.793a4.312 4.312 0 0 0-1.654 2.084q-.512 1.291-.512 2.876v7.543h-2.555zm16 .176a8.395 8.395 0 0 1-2.105-.264 6.315 6.315 0 0 1-1.804-.851 4.606 4.606 0 0 1-1.263-1.438c-.301-.587-.451-1.262-.451-2.025 0-.881.16-1.624.481-2.23a3.944 3.944 0 0 1 1.353-1.439 5.966 5.966 0 0 1 1.955-.763q1.112-.235 2.315-.235h4.661c0-.88-.13-1.644-.39-2.29a2.914 2.914 0 0 0-1.204-1.496c-.561-.371-1.302-.558-2.225-.558-.56 0-1.082.059-1.564.177a3.355 3.355 0 0 0-1.232.558c-.34.253-.592.596-.752 1.027h-2.737c.14-.705.41-1.302.812-1.791q.316-.382.692-.69.376-.308.812-.543a7.32 7.32 0 0 1 1.924-.733 9.072 9.072 0 0 1 2.045-.235c2.286 0 3.91.655 4.872 1.966.963 1.311 1.443 3.081 1.443 5.313v8.364h-2.134l-.15-1.967a4.528 4.528 0 0 1-1.595 1.351 6.298 6.298 0 0 1-1.924.616c-.642.117-1.253.176-1.835.176zm35.425-.176V20.605h2.465l.121 2.35a4.686 4.686 0 0 1 1.383-1.41 6.16 6.16 0 0 1 1.835-.821 7.154 7.154 0 0 1 1.984-.294q2.316 0 3.61.94c.882.625 1.503 1.477 1.864 2.553.381 1.057.571 2.26.571 3.61v8.54h-2.556v-7.865c0-.725-.05-1.419-.15-2.084a5.061 5.061 0 0 0-.542-1.791 2.868 2.868 0 0 0-1.142-1.232c-.501-.314-1.173-.47-2.015-.47-1.043 0-1.934.284-2.677.851-.721.568-1.273 1.33-1.654 2.29-.36.959-.54 2.035-.54 3.228v7.073h-2.557zM87.752 43c-1.082 0-2.085-.166-3.007-.499a5.638 5.638 0 0 1-2.346-1.497c-.641-.685-1.073-1.556-1.293-2.612h2.647c.16.587.46 1.056.901 1.409.442.352.953.596 1.535.733a6.548 6.548 0 0 0 1.713.236c1.083 0 1.955-.216 2.617-.646a3.496 3.496 0 0 0 1.473-1.732c.301-.724.451-1.555.451-2.495v-2.142a4.288 4.288 0 0 1-1.352 1.438 6.18 6.18 0 0 1-1.835.822 8.859 8.859 0 0 1-2.045.234c-1.604 0-2.917-.342-3.94-1.026a6.4 6.4 0 0 1-2.286-2.819c-.48-1.193-.721-2.533-.721-4.02 0-1.488.25-2.827.752-4.022q.471-1.14 1.261-1.98.471-.501 1.055-.896c1.042-.704 2.375-1.056 4-1.056q1.383 0 2.796.499.915.323 1.616.904.382.316.7.71l.12-1.938H95v15.351c0 1.448-.27 2.7-.811 3.757-.522 1.056-1.324 1.868-2.407 2.435-1.062.568-2.406.852-4.03.852zM57.12 36.073V20.605h2.557v15.468H57.12zm-11.142-2.025c1.062 0 1.954-.264 2.676-.792.722-.529 1.273-1.233 1.654-2.113.38-.881.57-1.84.57-2.876 0-1.077-.19-2.036-.57-2.877a4.486 4.486 0 0 0-1.624-1.995c-.722-.49-1.634-.735-2.737-.735-1.142 0-2.065.255-2.766.764-.682.509-1.183 1.203-1.504 2.084-.301.86-.451 1.829-.451 2.905 0 .782.08 1.517.24 2.201.18.665.451 1.262.812 1.79.381.51.872.91 1.474 1.204.601.293 1.343.44 2.225.44zm41.594 0c1.063 0 1.954-.264 2.676-.792.722-.529 1.273-1.233 1.654-2.113.381-.881.572-1.84.572-2.876 0-1.077-.19-2.036-.572-2.877a4.486 4.486 0 0 0-1.624-1.995c-.721-.49-1.634-.735-2.736-.735-1.143 0-2.065.255-2.767.764-.681.509-1.183 1.193-1.504 2.053-.3.862-.45 1.82-.45 2.878q0 1.643.48 2.934c.321.861.833 1.536 1.534 2.026.702.489 1.614.733 2.737.733zm-59.358 0c1.002 0 1.864-.156 2.586-.469.742-.333 1.313-.812 1.715-1.438.4-.626.6-1.39.6-2.29v-.763H30.32c-.662 0-1.313.01-1.955.03a7.754 7.754 0 0 0-1.744.235c-.521.136-.942.37-1.264.704q-.45.499-.45 1.438c0 .587.15 1.067.45 1.438a3.07 3.07 0 0 0 1.234.851 5.048 5.048 0 0 0 1.624.264z" fill="#FFF" fill-rule="evenodd"/><path d="M141.638 0v20.982h2.55V0h-2.55zm-6.266 30.876V9.893h2.552v20.983h-2.552zm-6.266-13.484c.321.316.741.474 1.261.474.48 0 .89-.158 1.231-.474.34-.317.509-.723.509-1.217 0-.475-.179-.871-.54-1.188a1.702 1.702 0 0 0-1.2-.474c-.501 0-.911.158-1.231.474q-.149.138-.251.304-.229.371-.229.884c0 .494.15.9.45 1.217zm-15.294 18.43V14.84h2.551v12.079h2.762l4.742-6.736h2.882l-5.283 7.449 5.733 8.191h-3.002l-4.772-6.708h-3.062v6.708h-2.551zm-11.4-.03c.74.139 1.471.208 2.192.208.74 0 1.48-.07 2.22-.208a6.937 6.937 0 0 0 2.072-.712 3.815 3.815 0 0 0 1.47-1.395c.381-.593.571-1.355.571-2.286 0-.652-.11-1.226-.331-1.72-.2-.495-.52-.92-.96-1.277-.42-.356-.951-.633-1.59-.83-.481-.159-1.141-.307-1.982-.446a254.4 254.4 0 0 1-2.311-.445 8.132 8.132 0 0 1-1.441-.446c-.42-.177-.75-.415-.99-.712-.221-.296-.33-.663-.33-1.097 0-.476.12-.852.359-1.128a2.12 2.12 0 0 1 .902-.653c.359-.159.74-.257 1.14-.297.4-.06.76-.09 1.08-.09q1.441 0 2.371.565c.621.356 1.001.82 1.141 1.395h2.371c-.099-.91-.42-1.672-.96-2.285-.54-.634-1.23-1.109-2.071-1.425-.82-.336-1.751-.505-2.791-.505q-1.261 0-2.372.267a6 6 0 0 0-1.921.832c-.56.356-1 .82-1.32 1.394-.301.554-.45 1.217-.45 1.988q0 .624.12 1.159c.1.335.23.652.39.949.16.277.35.534.57.771.24.218.501.416.78.594.821.495 1.762.831 2.822 1.009a70.5 70.5 0 0 1 3.031.564c.46.08.851.208 1.171.386.321.158.571.366.75.623.181.257.271.584.271.98 0 .534-.13.95-.391 1.246-.24.297-.56.524-.96.682a4.838 4.838 0 0 1-1.201.268c-.42.039-.79.06-1.11.06-.521 0-1.071-.07-1.652-.209a4.655 4.655 0 0 1-1.53-.682 2.877 2.877 0 0 1-.961-1.306H98c.12.85.39 1.563.81 2.137q.341.466.77.827.364.307.791.538a7.379 7.379 0 0 0 2.041.712zm51.255.208c-.721 0-1.451-.07-2.191-.208a7.356 7.356 0 0 1-2.041-.712 4.679 4.679 0 0 1-1.561-1.365c-.421-.574-.69-1.286-.811-2.137h2.582c.2.534.52.97.96 1.306.46.316.97.544 1.531.682a7.11 7.11 0 0 0 1.651.208c.319 0 .691-.02 1.11-.06.42-.04.821-.128 1.201-.267.4-.158.72-.386.961-.682.259-.296.389-.712.389-1.246 0-.396-.09-.723-.269-.98a1.956 1.956 0 0 0-.751-.623 3.692 3.692 0 0 0-1.17-.386 70.557 70.557 0 0 0-3.032-.564c-1.061-.178-2.001-.514-2.822-1.009a5.716 5.716 0 0 1-.78-.594 4.272 4.272 0 0 1-.57-.771 5.074 5.074 0 0 1-.391-.95 5.284 5.284 0 0 1-.12-1.158c0-.771.15-1.434.45-1.988a3.864 3.864 0 0 1 1.321-1.394 6 6 0 0 1 1.921-.832 10.147 10.147 0 0 1 2.371-.267c1.041 0 1.972.169 2.792.505.84.316 1.531.79 2.071 1.425q.161.181.296.381.545.809.665 1.904h-2.371c-.141-.574-.521-1.04-1.141-1.395-.62-.376-1.411-.564-2.371-.564-.32 0-.681.03-1.081.089-.401.04-.78.138-1.141.297-.36.138-.66.356-.9.653-.24.276-.361.652-.361 1.128 0 .434.111.8.331 1.097.24.297.57.535.991.712.42.18.9.328 1.44.446.7.138 1.471.287 2.312.445.84.139 1.501.287 1.98.445.641.198 1.171.475 1.591.831.44.357.761.782.961 1.277.22.494.33 1.068.33 1.72 0 .931-.19 1.693-.57 2.286a3.832 3.832 0 0 1-1.471 1.395 6.93 6.93 0 0 1-2.071.712c-.741.139-1.481.208-2.221.208zm-24.561-15.818v15.64h2.551v-15.64h-2.551z" fill="#377DE6" fill-rule="evenodd"/></svg>